<?xml version="1.0" encoding="UTF-8"?>
<!DOCTYPE svg >
<svg xmlns="http://www.w3.org/2000/svg" version="1.1" width="1280px" height="720px"
    style="shape-rendering:geometricPrecision; text-rendering:geometricPrecision; image-rendering:optimizeQuality; fill-rule:evenodd; clip-rule:evenodd"
    xmlns:xlink="http://www.w3.org/1999/xlink">
    <g>
        <path style="opacity:1" fill="#fefefe"
            d="M 414.5,71.5 C 414.821,73.0481 415.821,73.7148 417.5,73.5C 439.144,86.1198 448.644,105.12 446,130.5C 447.378,135.208 450.212,138.708 454.5,141C 460.034,142.867 465.701,144.201 471.5,145C 575.148,146.644 678.815,146.978 782.5,146C 792.103,145.345 801.436,143.512 810.5,140.5C 814.153,139.011 816.653,136.344 818,132.5C 818.5,126.175 818.666,119.842 818.5,113.5C 822.44,88.059 837.106,72.8924 862.5,68C 944.833,67.3333 1027.17,67.3333 1109.5,68C 1133.87,72.7051 1148.71,87.2051 1154,111.5C 1154.67,280.5 1154.67,449.5 1154,618.5C 1148.7,642.801 1133.87,657.301 1109.5,662C 796.167,662.667 482.833,662.667 169.5,662C 143.304,656.804 128.47,640.971 125,614.5C 124.333,448.167 124.333,281.833 125,115.5C 128.47,89.0295 143.304,73.1961 169.5,68C 246.833,67.3333 324.167,67.3333 401.5,68C 405.932,68.8671 410.265,70.0338 414.5,71.5 Z" />
    </g>
    <g>
        <path style="opacity:0.933" fill="#767676"
            d="M 414.5,71.5 C 415.71,71.9321 416.71,72.5987 417.5,73.5C 415.821,73.7148 414.821,73.0481 414.5,71.5 Z" />
    </g>
    <g>
        <path style="opacity:0.243" fill="#424242"
            d="M 818.5,113.5 C 818.666,119.842 818.5,126.175 818,132.5C 816.653,136.344 814.153,139.011 810.5,140.5C 813.223,137.938 815.389,134.938 817,131.5C 817.172,125.319 817.672,119.319 818.5,113.5 Z" />
    </g>
</svg>