<?xml version="1.0" encoding="UTF-8"?>
<!DOCTYPE svg>
<svg xmlns="http://www.w3.org/2000/svg" version="1.1" width="720px" height="720px"
    style="shape-rendering:geometricPrecision; text-rendering:geometricPrecision; image-rendering:optimizeQuality; fill-rule:evenodd; clip-rule:evenodd"
    xmlns:xlink="http://www.w3.org/1999/xlink">
    <g>
        <path style="opacity:1" fill="#fcfcfc"
            d="M 373.5,145.5 C 373.167,244.502 373.5,343.502 374.5,442.5C 375.107,442.376 375.44,442.043 375.5,441.5C 377.749,440.92 379.415,439.587 380.5,437.5C 401.632,415.868 422.965,394.368 444.5,373C 456.641,368.238 464.307,372.238 467.5,385C 466.952,388.927 465.452,392.427 463,395.5C 431.833,426.667 400.667,457.833 369.5,489C 362.833,493.667 356.167,493.667 349.5,489C 318.333,457.833 287.167,426.667 256,395.5C 249.68,386.601 250.846,378.768 259.5,372C 264.686,369.774 269.686,370.107 274.5,373C 297.422,396.089 320.422,418.923 343.5,441.5C 343.56,442.043 343.893,442.376 344.5,442.5C 345.5,343.502 345.833,244.502 345.5,145.5C 345.808,136.526 350.474,131.859 359.5,131.5C 368.526,131.859 373.192,136.526 373.5,145.5 Z" />
    </g>
    <g>
        <path style="opacity:0.2" fill="#232323"
            d="M 345.5,145.5 C 345.833,244.502 345.5,343.502 344.5,442.5C 343.893,442.376 343.56,442.043 343.5,441.5C 344.167,342.833 344.833,244.167 345.5,145.5 Z" />
    </g>
    <g>
        <path style="opacity:0.2" fill="#222222"
            d="M 373.5,145.5 C 374.167,244.167 374.833,342.833 375.5,441.5C 375.44,442.043 375.107,442.376 374.5,442.5C 373.5,343.502 373.167,244.502 373.5,145.5 Z" />
    </g>
    <g>
        <path style="opacity:1" fill="#f7f7f7"
            d="M 115.5,351.5 C 125.38,351.221 131.213,355.888 133,365.5C 133.333,414.167 133.667,462.833 134,511.5C 141.079,544.245 161.246,562.745 194.5,567C 304.5,567.667 414.5,567.667 524.5,567C 557.754,562.745 577.921,544.245 585,511.5C 585.333,463.5 585.667,415.5 586,367.5C 589.073,355.047 596.573,351.213 608.5,356C 611.106,357.938 612.939,360.438 614,363.5C 614.667,413.5 614.667,463.5 614,513.5C 605.736,558.431 579.236,585.597 534.5,595C 421.849,596.642 309.182,596.975 196.5,596C 143.797,590.632 112.963,561.799 104,509.5C 103.333,460.5 103.333,411.5 104,362.5C 106.437,357.226 110.271,353.56 115.5,351.5 Z" />
    </g>
    <g>
        <path style="opacity:1" fill="#9b9b9b"
            d="M 380.5,437.5 C 379.415,439.587 377.749,440.92 375.5,441.5C 376.585,439.413 378.251,438.08 380.5,437.5 Z" />
    </g>
</svg>